<svg width="40" height="40" viewBox="0 0 40 40" fill="none" xmlns="http://www.w3.org/2000/svg">
<rect x="0.5" y="0.5" width="39" height="39" rx="5.5" fill="#35521D"/>
<rect x="0.5" y="0.5" width="39" height="39" rx="5.5" stroke="#35521D"/>
<path d="M20.9804 9.02113C20.9804 8.75591 21.0858 8.50156 21.2733 8.31402C21.4609 8.12649 21.7152 8.02113 21.9804 8.02113C24.6317 8.02404 27.1735 9.07854 29.0483 10.9533C30.923 12.828 31.9775 15.3699 31.9804 18.0211C31.9804 18.2863 31.8751 18.5407 31.6875 18.7282C31.5 18.9158 31.2456 19.0211 30.9804 19.0211C30.7152 19.0211 30.4609 18.9158 30.2733 18.7282C30.0858 18.5407 29.9804 18.2863 29.9804 18.0211C29.978 15.9001 29.1344 13.8667 27.6347 12.3669C26.1349 10.8671 24.1014 10.0235 21.9804 10.0211C21.7152 10.0211 21.4609 9.91577 21.2733 9.72824C21.0858 9.5407 20.9804 9.28634 20.9804 9.02113ZM21.9804 14.0211C23.0413 14.0211 24.0587 14.4426 24.8089 15.1927C25.559 15.9428 25.9804 16.9603 25.9804 18.0211C25.9804 18.2863 26.0858 18.5407 26.2733 18.7282C26.4609 18.9158 26.7152 19.0211 26.9804 19.0211C27.2456 19.0211 27.5 18.9158 27.6875 18.7282C27.8751 18.5407 27.9804 18.2863 27.9804 18.0211C27.9788 16.4303 27.3462 14.9051 26.2213 13.7802C25.0964 12.6554 23.5712 12.0227 21.9804 12.0211C21.7152 12.0211 21.4609 12.1265 21.2733 12.314C21.0858 12.5016 20.9804 12.7559 20.9804 13.0211C20.9804 13.2863 21.0858 13.5407 21.2733 13.7282C21.4609 13.9158 21.7152 14.0211 21.9804 14.0211ZM31.0734 24.7601C31.6529 25.3412 31.9784 26.1284 31.9784 26.9491C31.9784 27.7698 31.6529 28.557 31.0734 29.1381L30.1634 30.1871C21.9734 38.0281 2.04346 18.1031 9.76345 9.88713L10.9135 8.88713C11.4952 8.32381 12.2754 8.01218 13.0852 8.01966C13.8949 8.02715 14.6692 8.35315 15.2404 8.92713C15.2714 8.95813 17.1244 11.3651 17.1244 11.3651C17.6743 11.9428 17.9803 12.7101 17.979 13.5075C17.9777 14.305 17.6692 15.0713 17.1174 15.6471L15.9594 17.1031C16.6003 18.6602 17.5425 20.0754 18.732 21.2672C19.9214 22.4591 21.3346 23.4041 22.8904 24.0481L24.3554 22.8831C24.9313 22.3318 25.6975 22.0236 26.4947 22.0225C27.292 22.0214 28.059 22.3275 28.6364 22.8771C28.6364 22.8771 31.0424 24.7291 31.0734 24.7601ZM29.6974 26.2141C29.6974 26.2141 27.3044 24.3731 27.2734 24.3421C27.0674 24.1379 26.789 24.0233 26.4989 24.0233C26.2088 24.0233 25.9304 24.1379 25.7244 24.3421C25.6974 24.3701 23.6804 25.9771 23.6804 25.9771C23.5445 26.0853 23.3828 26.1562 23.2111 26.1829C23.0394 26.2095 22.8638 26.191 22.7014 26.1291C20.6859 25.3787 18.8552 24.2039 17.3333 22.6842C15.8114 21.1645 14.6338 19.3356 13.8804 17.3211C13.8136 17.1566 13.7919 16.9772 13.8174 16.8015C13.8428 16.6257 13.9147 16.4599 14.0254 16.3211C14.0254 16.3211 15.6324 14.3031 15.6594 14.2771C15.8637 14.0711 15.9783 13.7927 15.9783 13.5026C15.9783 13.2125 15.8637 12.9341 15.6594 12.7281C15.6284 12.6981 13.7874 10.3031 13.7874 10.3031C13.5783 10.1156 13.3055 10.0152 13.0247 10.0225C12.7439 10.0297 12.4766 10.1441 12.2774 10.3421L11.1275 11.3421C5.48546 18.1261 22.7564 34.4391 28.7014 28.8211L29.6124 27.7711C29.8259 27.5734 29.9541 27.3004 29.97 27.0098C29.9859 26.7193 29.8881 26.4339 29.6974 26.2141Z" fill="white"/>
</svg>
