<svg width="51" height="55" viewBox="0 0 51 55" fill="none" xmlns="http://www.w3.org/2000/svg">
<path d="M19.75 4.74969H22.25C25.0114 4.74969 27.25 6.98826 27.25 9.74969V19.75C27.25 26.6536 21.6535 32.25 14.75 32.25M9.75 4.74969H7.25C4.48858 4.74969 2.25 6.98826 2.25 9.74968V19.75C2.25 26.6536 7.84644 32.25 14.75 32.25M14.75 32.25V38.5C14.75 46.0939 20.9061 52.25 28.5 52.25C36.0939 52.25 42.25 46.0939 42.25 38.5V36M42.25 36C45.7018 36 48.5 33.2018 48.5 29.75C48.5 26.2983 45.7018 23.5 42.25 23.5C38.7982 23.5 36 26.2983 36 29.75C36 33.2018 38.7982 36 42.25 36ZM19.75 2.25L19.7499 7.24951M9.75 2.25005V7.25004" stroke="#2D4213" stroke-width="4.5" stroke-linecap="round" stroke-linejoin="round"/>
</svg>
