<svg width="53" height="53" viewBox="0 0 53 53" fill="none" xmlns="http://www.w3.org/2000/svg">
<path d="M26.1667 2C32.2114 8.61769 35.6467 17.2057 35.8333 26.1667C35.6467 35.1276 32.2114 43.7156 26.1667 50.3333M26.1667 2C20.1219 8.61769 16.6867 17.2057 16.5 26.1667C16.6867 35.1276 20.1219 43.7156 26.1667 50.3333M26.1667 2C12.8198 2 2 12.8198 2 26.1667C2 39.5135 12.8198 50.3333 26.1667 50.3333M26.1667 2C39.5135 2 50.3333 12.8198 50.3333 26.1667C50.3333 39.5135 39.5135 50.3333 26.1667 50.3333M3.20838 18.9167H49.125M3.20833 33.4167H49.125" stroke="#2D4213" stroke-width="4" stroke-linecap="round" stroke-linejoin="round"/>
</svg>
