<svg width="40" height="40" viewBox="0 0 40 40" fill="none" xmlns="http://www.w3.org/2000/svg">
<rect width="40" height="40" rx="6" fill="#2D4213"/>
<path d="M16 15.839C16 13.7469 17.8957 11.6795 19.2263 10.4861C19.9489 9.83796 21.0511 9.83796 21.7737 10.4861C23.1043 11.6795 25 13.7469 25 15.839C25 17.8902 23.2959 20 20.5 20C17.7041 20 16 17.8902 16 15.839Z" stroke="white" stroke-width="1.5"/>
<path d="M12 22H14.3948C14.689 22 14.9791 22.0663 15.2422 22.1936L17.2841 23.1816C17.5472 23.3089 17.8373 23.3751 18.1315 23.3751H19.1741C20.1825 23.3751 21 24.1662 21 25.142C21 25.1814 20.973 25.2161 20.9338 25.2269L18.3929 25.9295C17.9371 26.0555 17.449 26.0116 17.025 25.8064L14.8421 24.7503" stroke="white" stroke-width="1.5" stroke-linecap="round" stroke-linejoin="round"/>
<path d="M21 24.5L25.5928 23.0889C26.407 22.8352 27.2871 23.136 27.7971 23.8423C28.1659 24.3529 28.0157 25.0842 27.4785 25.3942L19.9629 29.7305C19.4849 30.0063 18.9209 30.0736 18.3952 29.9176L12 28.0199" stroke="white" stroke-width="1.5" stroke-linecap="round" stroke-linejoin="round"/>
</svg>
