<svg width="312" height="48" viewBox="0 0 312 48" fill="none" xmlns="http://www.w3.org/2000/svg">
<path d="M311.684 1.79376C311.756 1.52703 311.597 1.25286 311.331 1.18139L306.984 0.0167042C306.717 -0.0547735 306.443 0.103521 306.372 0.370257C306.3 0.63698 306.458 0.911163 306.725 0.982621L310.589 2.01791L309.554 5.8816C309.482 6.14835 309.64 6.4225 309.907 6.49399C310.174 6.56546 310.448 6.40716 310.519 6.14043L311.684 1.79376ZM0.222656 10.0342L0.000993362 10.4824C0.827728 10.8912 1.71462 11.3304 2.65981 11.7962L2.88084 11.3477L3.10186 10.8992C2.1575 10.4338 1.27154 9.99513 0.444319 9.586L0.222656 10.0342ZM8.29775 13.9852L8.08149 14.436C9.77207 15.2469 11.5862 16.1043 13.5204 16.9979L13.7301 16.544L13.9398 16.0901C12.0106 15.1988 10.2009 14.3435 8.514 13.5343L8.29775 13.9852ZM19.2181 19.0266L19.0157 19.4838C20.7833 20.2662 22.6301 21.0668 24.5541 21.8799L24.7488 21.4194L24.9434 20.9588C23.0248 20.148 21.1832 19.3496 19.4204 18.5694L19.2181 19.0266ZM30.3223 23.7186L30.1357 24.1824C31.9539 24.9141 33.8305 25.6514 35.7641 26.3903L35.9426 25.9232L36.1211 25.4561C34.1931 24.7194 32.3219 23.9843 30.509 23.2547L30.3223 23.7186ZM41.6138 28.0327L41.4436 28.5029C43.2891 29.1706 45.1801 29.8367 47.1157 30.4982L47.2774 30.025L47.4391 29.5519C45.5092 28.8924 43.6238 28.2283 41.7839 27.5625L41.6138 28.0327ZM52.9763 31.9155L52.8231 32.3915C54.7074 32.9977 56.6296 33.5975 58.589 34.1887L58.7334 33.71L58.8778 33.2313C56.9244 32.6419 55.008 32.0439 53.1294 31.4395L52.9763 31.9155ZM64.5504 35.4065L64.4148 35.8877C66.3127 36.4222 68.2423 36.9471 70.2031 37.4605L70.3297 36.9768L70.4563 36.4931C68.5016 35.9813 66.5779 35.458 64.6859 34.9252L64.5504 35.4065ZM76.1679 38.4473L76.0503 38.9333C77.9929 39.4034 79.9637 39.8611 81.9621 40.3047L82.0705 39.8166L82.1788 39.3285C80.1867 38.8862 78.2221 38.4299 76.2855 37.9614L76.1679 38.4473ZM87.9288 41.0595L87.8297 41.5495C89.7818 41.9444 91.7584 42.3252 93.759 42.6902L93.8487 42.1983L93.9385 41.7065C91.9442 41.3426 89.9739 40.963 88.028 40.5694L87.9288 41.0595ZM99.7993 43.225L99.7191 43.7186C101.678 44.0371 103.658 44.34 105.66 44.626L105.731 44.131L105.801 43.6361C103.806 43.351 101.832 43.0491 99.8796 42.7315L99.7993 43.225ZM111.73 44.9284L111.669 45.4246C113.64 45.667 115.63 45.8923 117.639 46.0996L117.69 45.6023L117.741 45.1049C115.739 44.8983 113.755 44.6736 111.791 44.4321L111.73 44.9284ZM123.696 46.1624L123.655 46.6606C125.643 46.8262 127.648 46.9737 129.67 47.1019L129.702 46.6029L129.734 46.1039C127.718 45.9761 125.719 45.8291 123.738 45.6641L123.696 46.1624ZM135.71 46.9241L135.688 47.4236C137.688 47.5106 139.703 47.5784 141.733 47.6261L141.745 47.1263L141.757 46.6264C139.733 46.5788 137.724 46.5112 135.732 46.4245L135.71 46.9241ZM147.749 47.2075L147.747 47.7075C149.752 47.7147 151.772 47.7019 153.806 47.6683L153.798 47.1683L153.789 46.6684C151.762 46.7019 149.749 46.7147 147.75 46.7075L147.749 47.2075ZM159.791 47.0094L159.809 47.509C161.816 47.4358 163.835 47.3419 165.868 47.2266L165.839 46.7274L165.811 46.2282C163.785 46.3431 161.772 46.4367 159.772 46.5097L159.791 47.0094ZM171.816 46.3286L171.854 46.8272C173.857 46.6734 175.872 46.4986 177.898 46.302L177.85 45.8043L177.801 45.3067C175.782 45.5027 173.774 45.6769 171.777 45.8301L171.816 46.3286ZM183.804 45.1668L183.862 45.6634C185.857 45.4297 187.862 45.1747 189.878 44.8976L189.81 44.4022L189.742 43.9069C187.732 44.1831 185.734 44.4373 183.746 44.6702L183.804 45.1668ZM195.737 43.5276L195.814 44.0215C197.796 43.7091 199.788 43.375 201.789 43.0188L201.701 42.5265L201.613 42.0343C199.619 42.3894 197.634 42.7223 195.659 43.0337L195.737 43.5276ZM207.596 41.4171L207.694 41.9076C209.658 41.518 211.631 41.1067 213.613 40.6732L213.506 40.1848L213.4 39.6963C211.424 40.1284 209.457 40.5383 207.499 40.9267L207.596 41.4171ZM219.368 38.8431L219.484 39.3294C221.427 38.8648 223.378 38.3787 225.337 37.8704L225.211 37.3864L225.085 36.9024C223.133 37.4091 221.188 37.8937 219.251 38.3568L219.368 38.8431ZM231.037 35.8149L231.172 36.2964C233.089 35.7595 235.014 35.2012 236.945 34.6211L236.801 34.1422L236.657 33.6633C234.732 34.2417 232.813 34.7982 230.902 35.3334L231.037 35.8149ZM242.592 32.343L242.745 32.8191C244.633 32.213 246.528 31.5859 248.428 30.9371L248.267 30.464L248.105 29.9908C246.21 30.6375 244.322 31.2628 242.44 31.8669L242.592 32.343ZM253.978 28.4556L254.148 28.9258C256.019 28.2487 257.896 27.5505 259.778 26.8309L259.599 26.3639L259.421 25.8968C257.544 26.6144 255.673 27.3104 253.808 27.9855L253.978 28.4556ZM265.206 24.1626L265.393 24.6263C267.253 23.877 269.118 23.1065 270.989 22.3145L270.794 21.854L270.599 21.3936C268.734 22.1834 266.874 22.9516 265.019 23.6988L265.206 24.1626ZM276.286 19.472L276.489 19.929C278.328 19.113 280.171 18.276 282.019 17.4176L281.808 16.9641L281.598 16.5107C279.755 17.3667 277.917 18.2013 276.084 19.015L276.286 19.472ZM287.218 14.3961L287.436 14.846C289.233 13.9746 291.034 13.0829 292.839 12.1704L292.614 11.7242L292.388 11.2779C290.588 12.1879 288.792 13.0772 287 13.9462L287.218 14.3961ZM298.001 8.94563L298.234 9.38813C299.987 8.46589 301.744 7.52395 303.505 6.56204L303.265 6.12326L303.025 5.68449C301.269 6.64389 299.517 7.58333 297.769 8.50313L298.001 8.94563ZM308.55 3.18105L308.797 3.61599C309.681 3.11487 310.566 2.60867 311.451 2.09736L311.201 1.66435L310.951 1.23134C310.068 1.74134 309.185 2.24625 308.304 2.74608L308.55 3.18105Z" fill="#2D4213"/>
</svg>
