<svg width="312" height="48" viewBox="0 0 312 48" fill="none" xmlns="http://www.w3.org/2000/svg">
<path d="M311.684 45.9152C311.756 46.182 311.597 46.4561 311.331 46.5276L306.984 47.6923C306.717 47.7638 306.443 47.6055 306.372 47.3387C306.3 47.072 306.458 46.7978 306.725 46.7264L310.589 45.6911L309.554 41.8274C309.482 41.5606 309.64 41.2865 309.907 41.215C310.174 41.1435 310.448 41.3018 310.519 41.5686L311.684 45.9152ZM0.222656 37.6748L0.000993362 37.2266C0.827728 36.8177 1.71462 36.3786 2.65981 35.9128L2.88084 36.3613L3.10186 36.8098C2.1575 37.2752 1.27154 37.7139 0.444319 38.123L0.222656 37.6748ZM8.29775 33.7238L8.08149 33.273C9.77207 32.462 11.5862 31.6046 13.5204 30.7111L13.7301 31.165L13.9398 31.6189C12.0106 32.5101 10.2009 33.3655 8.514 34.1746L8.29775 33.7238ZM19.2181 28.6824L19.0157 28.2252C20.7833 27.4428 22.6301 26.6422 24.5541 25.829L24.7488 26.2896L24.9434 26.7502C23.0248 27.561 21.1832 28.3594 19.4204 29.1396L19.2181 28.6824ZM30.3223 23.9904L30.1357 23.5266C31.9539 22.7949 33.8305 22.0576 35.7641 21.3187L35.9426 21.7858L36.1211 22.2528C34.1931 22.9896 32.3219 23.7247 30.509 24.4543L30.3223 23.9904ZM41.6138 19.6763L41.4436 19.2061C43.2891 18.5384 45.1801 17.8723 47.1157 17.2108L47.2774 17.684L47.4391 18.1571C45.5092 18.8166 43.6238 19.4807 41.7839 20.1465L41.6138 19.6763ZM52.9763 15.7935L52.8231 15.3175C54.7074 14.7113 56.6296 14.1115 58.589 13.5203L58.7334 13.999L58.8778 14.4777C56.9244 15.067 55.008 15.6651 53.1294 16.2695L52.9763 15.7935ZM64.5504 12.3025L64.4148 11.8212C66.3127 11.2868 68.2423 10.7619 70.2031 10.2485L70.3297 10.7322L70.4563 11.2159C68.5016 11.7277 66.5779 12.251 64.6859 12.7838L64.5504 12.3025ZM76.1679 9.26165L76.0503 8.77567C77.9929 8.30562 79.9637 7.84792 81.9621 7.40426L82.0705 7.89237L82.1788 8.38049C80.1867 8.82276 78.2221 9.27904 76.2855 9.74763L76.1679 9.26165ZM87.9288 6.64953L87.8297 6.15946C89.7818 5.76455 91.7584 5.38383 93.759 5.01878L93.8487 5.51066L93.9385 6.00253C91.9442 6.36643 89.9739 6.74594 88.028 7.1396L87.9288 6.64953ZM99.7993 4.48394L99.7191 3.99042C101.678 3.67187 103.658 3.36896 105.66 3.08299L105.731 3.57796L105.801 4.07293C103.806 4.35799 101.832 4.65992 99.8796 4.97746L99.7993 4.48394ZM111.73 2.78061L111.669 2.28435C113.64 2.04202 115.63 1.81664 117.639 1.60934L117.69 2.10669L117.741 2.60405C115.739 2.81068 113.755 3.03534 111.791 3.27687L111.73 2.78061ZM123.696 1.54663L123.655 1.04835C125.643 0.882769 127.648 0.735327 129.67 0.607097L129.702 1.1061L129.734 1.60509C127.718 1.73291 125.719 1.87986 123.738 2.0449L123.696 1.54663ZM135.71 0.784922L135.688 0.285397C137.688 0.198412 139.703 0.130578 141.733 0.0828641L141.745 0.582725L141.757 1.08259C139.733 1.13014 137.724 1.19776 135.732 1.28445L135.71 0.784922ZM147.749 0.501451L147.747 0.00144989C149.752 -0.00570558 151.772 0.00708353 153.806 0.0407327L153.798 0.540658L153.789 1.04059C151.762 1.00706 149.749 0.99431 147.75 1.00145L147.749 0.501451ZM159.791 0.699622L159.809 0.199952C161.816 0.273219 163.835 0.367081 165.868 0.482355L165.839 0.981549L165.811 1.48076C163.785 1.36585 161.772 1.27231 159.772 1.19929L159.791 0.699622ZM171.816 1.38037L171.854 0.881831C173.857 1.03556 175.872 1.21035 177.898 1.40698L177.85 1.90465L177.801 2.40231C175.782 2.20633 173.774 2.03212 171.777 1.8789L171.816 1.38037ZM183.804 2.54221L183.862 2.04561C185.857 2.27924 187.862 2.53428 189.878 2.81143L189.81 3.30677L189.742 3.80211C187.732 3.52588 185.734 3.27168 183.746 3.03882L183.804 2.54221ZM195.737 4.18135L195.814 3.68745C197.796 3.9999 199.788 4.33394 201.789 4.69022L201.701 5.18248L201.613 5.67473C199.619 5.31962 197.634 4.98668 195.659 4.67526L195.737 4.18135ZM207.596 6.29185L207.694 5.80141C209.658 6.19101 211.631 6.60226 213.613 7.03576L213.506 7.52421L213.4 8.01266C211.424 7.58056 209.457 7.17064 207.499 6.7823L207.596 6.29185ZM219.368 8.86588L219.484 8.37959C221.427 8.84416 223.378 9.33032 225.337 9.83862L225.211 10.3226L225.085 10.8066C223.133 10.2999 221.188 9.81526 219.251 9.35217L219.368 8.86588ZM231.037 11.8941L231.172 11.4126C233.089 11.9495 235.014 12.5077 236.945 13.0879L236.801 13.5668L236.657 14.0457C234.732 13.4673 232.813 12.9107 230.902 12.3755L231.037 11.8941ZM242.592 15.366L242.745 14.8899C244.633 15.4959 246.528 16.1231 248.428 16.7718L248.267 17.245L248.105 17.7182C246.21 17.0715 244.322 16.4462 242.44 15.842L242.592 15.366ZM253.978 19.2534L254.148 18.7832C256.019 19.4603 257.896 20.1584 259.778 20.8781L259.599 21.3451L259.421 21.8121C257.544 21.0946 255.673 20.3986 253.808 19.7235L253.978 19.2534ZM265.206 23.5464L265.393 23.0826C267.253 23.832 269.118 24.6025 270.989 25.3945L270.794 25.8549L270.599 26.3154C268.734 25.5256 266.874 24.7573 265.019 24.0102L265.206 23.5464ZM276.286 28.237L276.489 27.78C278.328 28.596 280.171 29.433 282.019 30.2914L281.808 30.7448L281.598 31.1983C279.755 30.3423 277.917 29.5077 276.084 28.694L276.286 28.237ZM287.218 33.3129L287.436 32.863C289.233 33.7344 291.034 34.6261 292.839 35.5386L292.614 35.9848L292.388 36.4311C290.588 35.5211 288.792 34.6317 287 33.7628L287.218 33.3129ZM298.001 38.7634L298.234 38.3209C299.987 39.2431 301.744 40.185 303.505 41.1469L303.265 41.5857L303.025 42.0245C301.269 41.0651 299.517 40.1257 297.769 39.2059L298.001 38.7634ZM308.55 44.5279L308.797 44.093C309.681 44.5941 310.566 45.1003 311.451 45.6116L311.201 46.0446L310.951 46.4776C310.068 45.9676 309.185 45.4627 308.304 44.9629L308.55 44.5279Z" fill="#2D4213"/>
</svg>
