<svg width="490" height="431" viewBox="0 0 490 431" fill="none" xmlns="http://www.w3.org/2000/svg">
<path opacity="0.2" fill-rule="evenodd" clip-rule="evenodd" d="M437.986 -46.2802C440.682 -46.2802 442.881 -48.4012 443.013 -51.0712H489.998V-51.5772H443.013C442.881 -54.2482 440.682 -56.3732 437.986 -56.3732C435.206 -56.3732 432.954 -54.1132 432.954 -51.3242C432.954 -49.5482 433.87 -47.9862 435.254 -47.0872L406.36 3.07782C405.747 2.76682 405.053 2.5918 404.319 2.5918C401.902 2.5918 399.927 4.48782 399.795 6.87582H343.058C342.926 3.62582 340.255 1.0318 336.98 1.0318C333.621 1.0318 330.9 3.76181 330.9 7.12982C330.9 9.29581 332.025 11.1978 333.722 12.2798L305.513 61.2588C304.853 60.9208 304.105 60.7298 303.312 60.7298C300.634 60.7298 298.466 62.9028 298.466 65.5838C298.466 68.2678 300.634 70.4428 303.312 70.4428C304.105 70.4428 304.852 70.2518 305.513 69.9128L333.878 119.164C332.273 120.191 331.209 121.992 331.209 124.044C331.209 126.093 332.273 127.893 333.878 128.921L304.91 179.215C304.427 178.979 303.885 178.845 303.312 178.845C301.385 178.845 299.809 180.347 299.679 182.244H242.201C242.069 178.91 239.331 176.248 235.973 176.248C232.531 176.248 229.74 179.046 229.74 182.497C229.74 184.719 230.897 186.67 232.64 187.778L205.321 235.213C204.42 234.736 203.395 234.466 202.306 234.466C198.815 234.466 195.971 237.235 195.838 240.701H140.053C139.921 237.999 137.696 235.848 134.967 235.848C132.153 235.848 129.875 238.135 129.875 240.955C129.875 242.755 130.802 244.334 132.204 245.244L103.032 295.894C102.51 295.634 101.922 295.489 101.3 295.489C99.222 295.489 97.526 297.107 97.396 299.156H33.813L0.073 357.741L0 357.867L33.667 416.321L25.378 430.716H25.964L34.106 416.575H96.946C97.077 418.871 98.976 420.693 101.3 420.693C102.003 420.693 102.668 420.526 103.256 420.229L109.295 430.716H109.881L103.695 419.974C104.878 419.193 105.659 417.848 105.659 416.321C105.659 414.796 104.878 413.452 103.695 412.671L123.939 377.521L131.328 364.695C132.412 365.275 133.651 365.606 134.967 365.606C139.145 365.606 142.548 362.276 142.683 358.12H194.67C194.805 362.233 198.171 365.522 202.306 365.522C203.607 365.522 204.832 365.196 205.903 364.622L224.507 396.921L233.058 411.767C231.566 412.731 230.579 414.411 230.579 416.321C230.579 418.232 231.567 419.911 233.059 420.873L227.392 430.716H227.978L233.498 421.128C234.24 421.512 235.081 421.73 235.973 421.73C238.869 421.73 241.234 419.444 241.366 416.575H297.017C297.087 418.335 297.874 419.909 299.095 421.013L293.506 430.716H296.553L301.381 422.334C301.989 422.531 302.638 422.636 303.312 422.636C304.369 422.636 305.365 422.376 306.24 421.915L311.309 430.716H311.894L306.679 421.66C308.441 420.54 309.612 418.569 309.612 416.321C309.612 414.465 308.813 412.796 307.54 411.641L326.875 378.073H413.11L433.434 413.358C432.88 414.212 432.558 415.229 432.558 416.321C432.558 418.244 433.553 419.933 435.055 420.902L429.405 430.716H429.99L435.495 421.157C436.241 421.544 437.088 421.764 437.986 421.764C438.082 421.764 438.177 421.761 438.271 421.757L443.431 430.716H446.478L440.851 420.945C442.323 420.025 443.324 418.419 443.409 416.575H489.998V416.066H443.409C443.275 413.179 440.897 410.881 437.986 410.881C437.089 410.881 436.242 411.099 435.496 411.486L415.441 376.669L436.954 339.319L458.512 301.89H489.998V299.663V299.243V299.156H458.463L436.954 261.811L415.395 224.38L435.438 189.582C436.234 189.868 437.092 190.025 437.986 190.025C442.048 190.025 445.357 186.792 445.493 182.754H489.998V182.244H445.493C445.42 180.04 444.403 178.075 442.832 176.745L458.512 149.519H489.998V146.875H456.989L440.549 175.419C439.749 175.127 438.886 174.968 437.986 174.968C436.709 174.968 435.506 175.289 434.452 175.852L415.785 143.442L406.087 126.606C406.898 126.042 407.429 125.104 407.429 124.044C407.429 122.98 406.898 122.042 406.087 121.48L426.959 85.2418L434.158 72.7438C435.298 73.3578 436.602 73.7058 437.986 73.7058C442.374 73.7058 445.946 70.2078 446.082 65.8418H489.998V65.3318H446.082C445.948 60.9668 442.376 57.4668 437.986 57.4668C436.602 57.4668 435.298 57.8148 434.158 58.4288L415.785 26.5308L406.798 10.9278C408.032 10.1168 408.845 8.71982 408.845 7.12982C408.845 5.54083 408.032 4.14282 406.798 3.33282L435.692 -46.8332C436.38 -46.4802 437.16 -46.2802 437.986 -46.2802ZM205.76 235.465L233.079 188.033C233.944 188.487 234.929 188.746 235.973 188.746C239.33 188.746 242.067 186.086 242.201 182.754H299.68C299.81 184.65 301.386 186.149 303.312 186.149C303.884 186.149 304.426 186.016 304.908 185.78C304.908 185.78 304.908 185.78 304.909 185.78L326.379 223.057H325.348L281.519 299.156H241.402C241.27 296.266 238.889 293.962 235.973 293.962C235.074 293.962 234.226 294.181 233.478 294.57L213.772 260.355L205.759 246.443C207.574 245.293 208.778 243.264 208.778 240.955C208.778 238.644 207.574 236.615 205.76 235.465ZM436.162 302.069L415.346 338.213L407.258 352.254C406.38 351.792 405.38 351.528 404.319 351.528C400.91 351.528 398.132 354.233 398 357.614H344.403C344.272 353.619 340.998 350.421 336.98 350.421C335.718 350.421 334.529 350.736 333.487 351.295L314.778 318.811L305.621 302.909C306.751 302.158 307.496 300.871 307.496 299.409C307.496 297.946 306.751 296.66 305.621 295.911L325.953 260.609L335.251 244.464C335.773 244.724 336.359 244.869 336.98 244.869C339.053 244.869 340.746 243.251 340.877 241.208H395.801C395.935 245.81 399.697 249.497 404.319 249.497C405.78 249.497 407.156 249.128 408.359 248.478L404.172 241.208H404.173L408.359 248.478L426.52 280.009L436.162 296.751C435.32 297.333 434.766 298.307 434.766 299.409C434.766 300.511 435.32 301.486 436.162 302.069ZM404.319 232.413C399.697 232.413 395.935 236.1 395.801 240.701H340.877C340.747 238.656 339.053 237.041 336.98 237.041C336.359 237.041 335.773 237.185 335.251 237.444L328.489 225.704H412.809L408.359 233.432C407.156 232.783 405.78 232.413 404.319 232.413ZM334.812 237.699C333.765 238.4 333.075 239.597 333.075 240.955C333.075 242.311 333.765 243.508 334.812 244.211L314.34 279.755L305.182 295.655C304.619 295.375 303.984 295.215 303.312 295.215C301.086 295.215 299.266 296.957 299.136 299.156H284.569L326.875 225.704H327.904L334.812 237.699ZM103.255 412.414C102.667 412.118 102.003 411.951 101.3 411.951C98.977 411.951 97.079 413.771 96.946 416.066H34.106L0.584 357.867L34.106 299.663H97.396C97.526 301.709 99.222 303.329 101.3 303.329C101.921 303.329 102.509 303.185 103.032 302.925L123.501 338.465L130.888 351.292C128.702 352.659 127.247 355.091 127.247 357.863C127.247 360.638 128.702 363.072 130.889 364.439L103.255 412.414ZM202.306 350.208C198.168 350.208 194.801 353.502 194.67 357.614H142.683C142.551 353.455 139.148 350.124 134.967 350.124C133.651 350.124 132.411 350.455 131.327 351.039L112.766 318.811L103.47 302.67C104.519 301.967 105.211 300.769 105.211 299.409C105.211 298.048 104.52 296.85 103.47 296.148L132.642 245.498C133.339 245.857 134.129 246.059 134.967 246.059C137.696 246.059 139.921 243.912 140.053 241.208H195.838C195.971 244.672 198.815 247.442 202.306 247.442C203.395 247.442 204.42 247.174 205.32 246.699L224.507 280.009L233.04 294.824C231.535 295.792 230.538 297.485 230.538 299.409C230.538 301.335 231.535 303.027 233.039 303.995L213.333 338.213L205.904 351.11C204.832 350.535 203.607 350.208 202.306 350.208ZM305.256 410.314C304.644 410.114 303.991 410.007 303.312 410.007C299.919 410.007 297.152 412.696 297.017 416.066H241.366C241.232 413.197 238.868 410.911 235.973 410.911C235.08 410.911 234.239 411.128 233.498 411.513L206.342 364.367C208.504 363.014 209.943 360.609 209.943 357.863C209.943 355.123 208.504 352.716 206.343 351.365L224.946 319.065L233.477 304.251C234.226 304.638 235.074 304.858 235.973 304.858C238.889 304.858 241.27 302.556 241.402 299.663H281.228L280.707 300.567L324.586 376.748L305.256 410.314ZM326.725 375.164L283.758 300.567L284.278 299.663H299.136C299.266 301.862 301.086 303.604 303.312 303.604C303.984 303.604 304.619 303.444 305.181 303.163L325.513 338.465L333.048 351.549C330.949 352.862 329.553 355.198 329.553 357.863C329.553 360.53 330.95 362.868 333.049 364.182L326.725 375.164ZM413.11 375.425H327.16L333.489 364.437C334.53 364.993 335.718 365.309 336.98 365.309C340.996 365.309 344.268 362.116 344.403 358.12H398.001C398.135 361.503 400.912 364.201 404.319 364.201C405.38 364.201 406.379 363.94 407.257 363.477L404.172 358.12H404.173L407.257 363.477L413.624 374.532L413.11 375.425ZM456.227 300.566L456.228 300.567L456.989 301.89L456.227 300.568L434.669 337.995L413.917 374.023L407.696 363.222C409.464 362.099 410.639 360.119 410.639 357.863C410.639 355.612 409.465 353.633 407.697 352.51L426.959 319.065L436.601 302.323C437.021 302.524 437.49 302.637 437.986 302.637C439.681 302.637 441.067 301.325 441.196 299.663H455.706L456.227 300.568V300.566ZM434.669 263.135L455.414 299.156H441.196C441.067 297.494 439.681 296.181 437.986 296.181C437.49 296.181 437.021 296.293 436.601 296.495L415.785 260.355L408.798 248.223C411.224 246.717 412.84 244.026 412.84 240.955C412.84 237.883 411.224 235.193 408.798 233.687L413.253 225.952L434.669 263.135ZM426.52 163.097L434.013 176.107C431.89 177.437 430.476 179.802 430.476 182.497C430.476 184.809 431.517 186.878 433.153 188.26L413.111 223.057H326.965L314.778 201.898L305.348 185.524C306.316 184.869 306.954 183.758 306.954 182.497C306.954 181.239 306.316 180.127 305.348 179.471L334.316 129.175C335.113 129.592 336.019 129.828 336.98 129.828C340.081 129.828 342.613 127.373 342.746 124.296H401.219C401.348 125.898 402.685 127.161 404.319 127.161C404.795 127.161 405.246 127.052 405.649 126.86L404.172 124.296H404.173L405.649 126.86L426.52 163.097ZM433.718 58.6838C431.418 60.1168 429.887 62.6738 429.887 65.5838C429.887 68.4978 431.418 71.0548 433.718 72.4878L437.693 65.5848L437.694 65.5838L437.693 65.5868V65.5848L433.718 72.4878L415.346 104.388L405.649 121.225C405.246 121.033 404.795 120.925 404.319 120.925C402.685 120.925 401.348 122.187 401.219 123.788H342.746C342.613 120.712 340.081 118.259 336.98 118.259C336.019 118.259 335.113 118.493 334.316 118.91L305.951 69.6578C307.278 68.7918 308.155 67.2908 308.155 65.5838C308.155 63.8798 307.277 62.3788 305.95 61.5128L334.159 12.5348C335.003 12.9768 335.962 13.2288 336.98 13.2288C340.255 13.2288 342.926 10.6328 343.058 7.38382H399.795C399.927 9.77383 401.902 11.6688 404.319 11.6688C405.053 11.6688 405.747 11.4928 406.36 11.1818L404.172 7.38382H404.173L406.36 11.1818L433.718 58.6838Z" fill="#989933"/>
</svg>
